<svg width="1306" height="1150" viewBox="0 0 1306 1150" fill="none" xmlns="http://www.w3.org/2000/svg">
<g opacity="0.4">
<mask id="mask0_850_3186" style="mask-type:alpha" maskUnits="userSpaceOnUse" x="0" y="0" width="1306" height="1151">
<path d="M0 0.000183105H1306V1150H0V0.000183105Z" fill="#00906D"/>
</mask>
<g mask="url(#mask0_850_3186)">
<rect width="140.892" height="1200.17" transform="matrix(0.706566 -0.707648 -0.706565 -0.707648 1397.42 826.26)" fill="url(#paint0_linear_850_3186)"/>
<rect width="140.892" height="1234.69" transform="matrix(0.706566 0.707648 0.706566 -0.707648 -176.729 704.727)" fill="url(#paint1_linear_850_3186)"/>
<rect width="140.892" height="1098.91" transform="matrix(0.706566 -0.707648 -0.706565 -0.707648 1325.88 1097.61)" fill="url(#paint2_linear_850_3186)"/>
<rect width="140.892" height="1234.69" transform="matrix(0.706566 0.707648 0.706566 -0.707648 -176.729 1047.73)" fill="url(#paint3_linear_850_3186)"/>
</g>
</g>
<defs>
<linearGradient id="paint0_linear_850_3186" x1="70.4461" y1="0" x2="70.4461" y2="1200.17" gradientUnits="userSpaceOnUse">
<stop stop-color="#00906D" stop-opacity="0.35"/>
<stop offset="1" stop-color="#00906D" stop-opacity="0"/>
</linearGradient>
<linearGradient id="paint1_linear_850_3186" x1="70.4461" y1="0" x2="70.4461" y2="1234.69" gradientUnits="userSpaceOnUse">
<stop stop-color="#00906D" stop-opacity="0.35"/>
<stop offset="1" stop-color="#00906D" stop-opacity="0"/>
</linearGradient>
<linearGradient id="paint2_linear_850_3186" x1="70.4461" y1="0" x2="70.4461" y2="1098.91" gradientUnits="userSpaceOnUse">
<stop stop-color="#00906D" stop-opacity="0.35"/>
<stop offset="1" stop-color="#00906D" stop-opacity="0"/>
</linearGradient>
<linearGradient id="paint3_linear_850_3186" x1="70.4461" y1="0" x2="70.4461" y2="1234.69" gradientUnits="userSpaceOnUse">
<stop stop-color="#00906D" stop-opacity="0.35"/>
<stop offset="1" stop-color="#00906D" stop-opacity="0"/>
</linearGradient>
</defs>
</svg>
